<svg width="20" height="20" viewBox="0 0 20 20" fill="none" xmlns="http://www.w3.org/2000/svg">
<g clip-path="url(#clip0_3_116)">
<path d="M8.4306 14.0984C8.48394 14.0534 8.5381 14.0067 8.5881 13.9576C5.80394 16.6892 1.26394 15.4142 0.199769 11.5617V11.5559C-1.22773 6.31422 4.79144 2.33256 8.58644 5.99922C8.6656 6.08339 13.9081 11.6742 13.5748 11.3184H13.5898C14.3723 12.1251 15.5039 12.0367 16.1773 11.3317C16.9014 10.5751 16.9273 9.34006 16.2164 8.57089C15.0939 7.27839 12.8898 8.24422 13.1006 10.1601L11.8389 8.87506L10.3756 7.47589C10.6773 6.87672 11.0731 6.35256 11.5689 5.89922C11.5156 5.94506 11.4614 5.99256 11.4114 6.04006C14.2064 3.29839 18.7431 4.60339 19.7998 8.43922V8.44422C21.2306 13.6851 15.2048 17.6667 11.4131 14.0001C11.3356 13.9167 6.09644 8.29089 6.4281 8.64756L6.42477 8.63506C6.41144 8.63506 6.41144 8.62256 6.41144 8.62256C5.58977 7.77506 4.4756 7.90256 3.82394 8.59672C3.09894 9.35339 3.07394 10.5884 3.78644 11.3459C4.85977 12.6084 7.11144 11.6726 6.89977 9.71839C6.98144 9.80256 9.80727 12.7034 9.62727 12.5192C9.16977 13.4317 8.6581 13.8509 8.4306 14.0984Z" fill="#6499E9"/>
</g>
<defs>
<clipPath id="clip0_3_116">
<rect width="20" height="20" fill="white"/>
</clipPath>
</defs>
</svg>
