<svg width="28" height="28" viewBox="0 0 28 28" fill="none" xmlns="http://www.w3.org/2000/svg">
<path d="M21.875 11.3747C21.875 9.28611 21.0453 7.28307 19.5684 5.80623C18.0916 4.32938 16.0886 3.49969 14 3.49969C11.9114 3.49969 9.90836 4.32938 8.43151 5.80623C6.95466 7.28307 6.12498 9.28611 6.12498 11.3747C6.12498 14.6052 8.70973 18.8157 14 23.8592C19.2902 18.8157 21.875 14.6052 21.875 11.3747ZM14 26.2497C7.58273 20.4169 4.37498 15.4574 4.37498 11.3747C4.37498 8.82198 5.38904 6.37383 7.19407 4.56879C8.99911 2.76375 11.4473 1.74969 14 1.74969C16.5527 1.74969 19.0008 2.76375 20.8059 4.56879C22.6109 6.37383 23.625 8.82198 23.625 11.3747C23.625 15.4574 20.4172 20.4169 14 26.2497Z" fill="#7D7D7D"/>
<path d="M14 14.0005C14.6962 14.0005 15.3639 13.7239 15.8562 13.2317C16.3484 12.7394 16.625 12.0717 16.625 11.3755C16.625 10.6793 16.3484 10.0116 15.8562 9.51935C15.3639 9.02707 14.6962 8.75051 14 8.75051C13.3038 8.75051 12.6361 9.02707 12.1438 9.51935C11.6516 10.0116 11.375 10.6793 11.375 11.3755C11.375 12.0717 11.6516 12.7394 12.1438 13.2317C12.6361 13.7239 13.3038 14.0005 14 14.0005ZM14 15.7505C12.8397 15.7505 11.7269 15.2896 10.9064 14.4691C10.0859 13.6486 9.625 12.5358 9.625 11.3755C9.625 10.2152 10.0859 9.10239 10.9064 8.28192C11.7269 7.46144 12.8397 7.00051 14 7.00051C15.1603 7.00051 16.2731 7.46144 17.0936 8.28192C17.9141 9.10239 18.375 10.2152 18.375 11.3755C18.375 12.5358 17.9141 13.6486 17.0936 14.4691C16.2731 15.2896 15.1603 15.7505 14 15.7505Z" fill="#7D7D7D"/>
</svg>
