<svg width="12" height="8" viewBox="0 0 12 8" fill="none" xmlns="http://www.w3.org/2000/svg">
<path d="M5.22149 7.38926L0.258056 1.71588C-0.327704 1.04836 0.148355 3.80543e-07 1.03734 3.80543e-07H10.9642C11.1632 -0.000170201 11.3579 0.057011 11.5252 0.164697C11.6925 0.272382 11.8252 0.426007 11.9075 0.607175C11.9897 0.788342 12.018 0.989373 11.9889 1.18619C11.9598 1.38301 11.8746 1.56727 11.7435 1.71692L6.78006 7.38823C6.68292 7.49938 6.56313 7.58848 6.42872 7.64952C6.29431 7.71056 6.14839 7.74214 6.00077 7.74214C5.85315 7.74214 5.70724 7.71056 5.57283 7.64952C5.43842 7.58848 5.31862 7.49938 5.22149 7.38823V7.38926Z" fill="white"/>
</svg>
